<?xml version="1.0" encoding="utf-8"?>
<!-- Generator: Adobe Illustrator 16.0.0, SVG Export Plug-In . SVG Version: 6.00 Build 0)  -->
<!DOCTYPE svg PUBLIC "-//W3C//DTD SVG 1.1//EN" "http://www.w3.org/Graphics/SVG/1.1/DTD/svg11.dtd">
<svg version="1.1" id="Layer_1" xmlns="http://www.w3.org/2000/svg" xmlns:xlink="http://www.w3.org/1999/xlink" x="0px" y="0px"
	 width="84.437px" height="84.437px" viewBox="0 0 84.437 84.437" enable-background="new 0 0 84.437 84.437" xml:space="preserve">
<g>
	<path fill="#48C2C9" d="M42.218,0.25C19.04,0.25,0.25,19.04,0.25,42.218c0,23.179,18.79,41.968,41.968,41.968
		c23.179,0,41.969-18.789,41.969-41.968C84.187,19.04,65.397,0.25,42.218,0.25z M55.511,23.717c-2.482,0-5.161,0-6.431,0
		c-1.273,0-2.561,1.32-2.561,2.299c0,0.978,0,6.558,0,6.558s7.947,0,8.978,0c-0.359,5.03-1.101,9.629-1.101,9.629h-7.92v28.503
		H34.67V42.203h-5.746V32.61h5.746c0,0,0-6.408,0-7.844c0-1.433-0.291-11.034,12.097-11.034c1.661,0,5.43,0,8.744,0
		C55.511,17.899,55.511,22.413,55.511,23.717z"/>
</g>
</svg>
