<?xml version="1.0" encoding="utf-8"?>
<!-- Generator: Adobe Illustrator 16.0.0, SVG Export Plug-In . SVG Version: 6.00 Build 0)  -->
<!DOCTYPE svg PUBLIC "-//W3C//DTD SVG 1.1//EN" "http://www.w3.org/Graphics/SVG/1.1/DTD/svg11.dtd">
<svg version="1.1" id="Layer_1" xmlns="http://www.w3.org/2000/svg" xmlns:xlink="http://www.w3.org/1999/xlink" x="0px" y="0px"
	 width="84.437px" height="84.437px" viewBox="0 0 84.437 84.437" enable-background="new 0 0 84.437 84.437" xml:space="preserve">
<g>
	<path fill="#48C2C9" d="M42.22,0.449c-23.067,0-41.77,18.701-41.77,41.769c0,17.104,10.285,31.796,25.001,38.257
		c-0.118-2.917-0.021-6.418,0.728-9.591c0.802-3.392,5.375-22.76,5.375-22.76s-1.335-2.667-1.335-6.609
		c0-6.189,3.588-10.812,8.056-10.812c3.799,0,5.636,2.854,5.636,6.271c0,3.819-2.437,9.532-3.69,14.823
		c-1.046,4.432,2.222,8.045,6.594,8.045c7.912,0,13.242-10.164,13.242-22.207c0-9.155-6.166-16.007-17.38-16.007
		c-12.67,0-20.563,9.449-20.563,20.003c0,3.639,1.073,6.206,2.754,8.192c0.772,0.913,0.88,1.28,0.6,2.328
		c-0.2,0.769-0.66,2.619-0.851,3.353c-0.278,1.058-1.135,1.436-2.091,1.045c-5.836-2.382-8.554-8.773-8.554-15.958
		c0-11.865,10.007-26.092,29.853-26.092c15.945,0,26.441,11.54,26.441,23.927c0,16.386-9.109,28.627-22.537,28.627
		c-4.51,0-8.751-2.438-10.204-5.206c0,0-2.425,9.623-2.938,11.481c-0.886,3.22-2.619,6.438-4.204,8.948
		c3.757,1.108,7.725,1.712,11.838,1.712c23.065,0,41.767-18.7,41.767-41.77C83.987,19.15,65.286,0.449,42.22,0.449z"/>
</g>
</svg>
