<?xml version="1.0" encoding="utf-8"?>
<!-- Generator: Adobe Illustrator 16.0.0, SVG Export Plug-In . SVG Version: 6.00 Build 0)  -->
<!DOCTYPE svg PUBLIC "-//W3C//DTD SVG 1.1//EN" "http://www.w3.org/Graphics/SVG/1.1/DTD/svg11.dtd">
<svg version="1.1" id="Layer_1" xmlns="http://www.w3.org/2000/svg" xmlns:xlink="http://www.w3.org/1999/xlink" x="0px" y="0px"
	 width="84.437px" height="84.437px" viewBox="0 0 84.437 84.437" enable-background="new 0 0 84.437 84.437" xml:space="preserve">
<path fill="#49C3C9" d="M42.218-0.103c-23.374,0-42.321,18.948-42.321,42.322s18.948,42.32,42.321,42.32
	c23.374,0,42.321-18.946,42.321-42.32S65.592-0.103,42.218-0.103z M65.798,32.507c0.024,0.523,0.036,1.047,0.036,1.575
	c0,16.077-12.238,34.616-34.617,34.616c-6.87,0-13.265-2.016-18.65-5.466c0.952,0.111,1.92,0.17,2.903,0.17
	c5.7,0,10.945-1.946,15.11-5.208c-5.325-0.098-9.818-3.618-11.366-8.449c0.743,0.142,1.504,0.219,2.289,0.219
	c1.109,0,2.185-0.149,3.205-0.428c-5.565-1.119-9.759-6.036-9.759-11.93c0-0.051,0-0.102,0.001-0.153
	c1.639,0.911,3.517,1.46,5.51,1.523c-3.264-2.183-5.413-5.906-5.413-10.127c0-2.231,0.601-4.321,1.647-6.117
	c6.001,7.361,14.967,12.206,25.079,12.713c-0.208-0.891-0.316-1.82-0.316-2.773c0-6.719,5.449-12.167,12.167-12.167
	c3.501,0,6.663,1.478,8.882,3.841c2.771-0.544,5.376-1.557,7.725-2.952c-0.907,2.842-2.836,5.227-5.349,6.732
	c2.461-0.294,4.806-0.948,6.988-1.916C70.24,28.649,68.177,30.791,65.798,32.507z"/>
</svg>
